<svg width="24" height="24" viewBox="0 0 24 24" fill="none" xmlns="http://www.w3.org/2000/svg">
<path d="M11.134 21L1.60803 4.50004C1.52026 4.34803 1.47405 4.17558 1.47405 4.00005C1.47405 3.82451 1.52026 3.65207 1.60802 3.50006C1.69579 3.34804 1.82202 3.2218 1.97404 3.13403C2.12605 3.04626 2.29849 3.00005 2.47403 3.00004L21.526 3.00004C21.7016 3.00005 21.874 3.04626 22.026 3.13403C22.178 3.2218 22.3043 3.34804 22.392 3.50006C22.4798 3.65207 22.526 3.82451 22.526 4.00005C22.526 4.17558 22.4798 4.34803 22.392 4.50004L12.866 21C12.7783 21.1521 12.652 21.2783 12.5 21.366C12.348 21.4538 12.1756 21.5 12 21.5C11.8245 21.5 11.6521 21.4538 11.5 21.366C11.348 21.2783 11.2218 21.1521 11.134 21Z" fill="#1D1D1D"/>
</svg>
