<svg width="65" height="64" viewBox="0 0 65 64" fill="none" xmlns="http://www.w3.org/2000/svg">
<path d="M32.2979 2C49.0486 2 62.5967 15.4489 62.5967 32C62.5967 48.5511 49.0486 62 32.2979 62C15.5473 61.9998 2 48.551 2 32C2 15.449 15.5473 2.00015 32.2979 2Z" fill="#D9D9D9" stroke="#BEBEBE" stroke-width="4"/>
<path fill-rule="evenodd" clip-rule="evenodd" d="M32.4009 19.812C29.4409 19.812 29.1449 20.126 27.6129 20.126C26.3369 20.126 22.5049 17 20.5909 17C18.6769 17 16.4409 18.126 16.4409 21.376V25.126C16.445 26.11 16.801 29.126 18.201 28.32C16.547 30.276 16.3809 32.558 16.4029 34.766C15.9569 34.894 15.5029 35.04 15.0609 35.19C13.6929 35.658 12.2409 36.254 11.5869 36.678C11.2528 36.8939 11.0181 37.2337 10.9344 37.6226C10.8508 38.0116 10.9251 38.4178 11.1409 38.752C11.3568 39.0862 11.6966 39.3209 12.0856 39.4045C12.4745 39.4882 12.8808 39.4139 13.215 39.198C13.527 38.996 14.6569 38.498 16.031 38.028L16.4869 37.878C16.5789 38.744 16.8089 39.538 17.1509 40.258L17.1029 40.284C16.2829 40.716 15.523 41.214 15.0389 41.53L14.813 41.678C14.4788 41.8939 14.2441 42.2337 14.1604 42.6226C14.0768 43.0116 14.1511 43.4178 14.367 43.752C14.5828 44.0862 14.9226 44.3209 15.3116 44.4045C15.7005 44.4882 16.1068 44.4139 16.4409 44.198L16.703 44.026C17.193 43.706 17.821 43.296 18.505 42.936C18.6649 42.8507 18.8189 42.7733 18.9669 42.704C22.4269 45.95 28.6409 47 32.4009 47C36.1609 47 42.375 45.95 45.8349 42.704C45.9816 42.7733 46.1356 42.8507 46.297 42.936C46.9809 43.296 47.609 43.706 48.099 44.026L48.361 44.198C48.6951 44.4139 49.1014 44.4882 49.4903 44.4045C49.8793 44.3209 50.2191 44.0862 50.435 43.752C50.6508 43.4178 50.7251 43.0116 50.6415 42.6226C50.5578 42.2337 50.3231 41.8939 49.989 41.678L49.763 41.53C49.0946 41.083 48.4058 40.6672 47.699 40.284L47.651 40.258C47.993 39.538 48.223 38.744 48.315 37.878L48.771 38.028C50.145 38.498 51.275 38.996 51.589 39.198C51.923 39.4018 52.3234 39.467 52.7048 39.3797C53.0862 39.2924 53.4184 39.0595 53.6306 38.7307C53.8427 38.402 53.918 38.0033 53.8403 37.6198C53.7627 37.2363 53.5383 36.8984 53.215 36.678C52.561 36.254 51.109 35.658 49.743 35.19C49.2981 35.0381 48.85 34.8961 48.399 34.764C48.423 32.556 48.255 30.276 46.599 28.32C47.999 29.126 48.359 26.11 48.361 25.124V21.376C48.361 18.126 46.127 17 44.211 17C42.297 17 38.465 20.126 37.191 20.126C35.6569 20.126 35.361 19.812 32.4009 19.812ZM31.0509 38.2C31.4549 38.062 31.9329 38 32.4009 38C32.8689 38 33.3469 38.062 33.7529 38.2C33.9529 38.268 34.1929 38.376 34.4089 38.548C34.5569 38.6598 34.678 38.8033 34.7631 38.9681C34.8482 39.1329 34.8954 39.3146 34.9009 39.5C34.9009 39.96 34.6229 40.28 34.4089 40.452C34.1949 40.624 33.9509 40.732 33.7529 40.8C33.3469 40.938 32.8689 41 32.4009 41C31.9329 41 31.4549 40.938 31.0509 40.8C30.8134 40.7222 30.5909 40.6045 30.393 40.452C30.245 40.3402 30.1239 40.1966 30.0388 40.0319C29.9537 39.8671 29.9065 39.6854 29.9009 39.5C29.9009 39.04 30.1789 38.72 30.393 38.548C30.607 38.376 30.8529 38.268 31.0509 38.2ZM36.7409 32C37.0149 31.544 37.5529 31 38.3609 31C39.1689 31 39.709 31.544 39.9809 32C40.2649 32.478 40.4009 33.054 40.4009 33.626C40.4009 34.198 40.2649 34.772 39.9809 35.248C39.709 35.706 39.1689 36.25 38.3609 36.25C37.5529 36.25 37.0149 35.706 36.7409 35.25C36.459 34.7556 36.3141 34.195 36.3209 33.626C36.3209 33.054 36.4569 32.478 36.7409 32.002M24.8209 32.002C25.0949 31.546 25.633 31.002 26.441 31.002C27.249 31.002 27.7889 31.546 28.0609 32.002C28.3449 32.48 28.4809 33.056 28.4809 33.628C28.4809 34.2 28.3449 34.774 28.0609 35.25C27.7889 35.708 27.249 36.252 26.441 36.252C25.633 36.252 25.0949 35.708 24.8209 35.252C24.539 34.7576 24.3941 34.1971 24.4009 33.628C24.4009 33.056 24.5369 32.478 24.8209 32.002Z" fill="#878787"/>
</svg>
